<svg xmlns="http://www.w3.org/2000/svg" xmlns:xlink="http://www.w3.org/1999/xlink" version="1.1" x="0px" y="0px" viewBox="-25.6 -51.2 563.2 691.2" style="enable-background:new 0 0 512 512;" xml:space="preserve"><style type="text/css">
	.st0{fill-rule:evenodd;clip-rule:evenodd;}
</style><path class="st0" d="M292.087,369.399c0.129,0.042,0.256,0.09,0.379,0.145c3.349,1.283,6.761,2.392,10.222,3.32  c20.459,5.482,42.598,4.674,63.269-3.262c0.196-0.095,0.401-0.174,0.613-0.236c5.609-1.914,15.224-7.14,20.577-10.866  c21.076-14.669,34.97-34.746,41.258-58.214c6.802-25.384,3.924-53.357-10.244-77.901c-2.059-3.466-5.752-9.286-8.211-12.15  c-0.155-0.165-0.296-0.343-0.421-0.532c-13.983-17.576-32.975-29.581-53.702-35.134c-25.386-6.802-53.36-3.924-77.905,10.247  c-24.058,13.89-40.874,36.438-47.812,62.331c-2.587,9.655-3.289,16.871-3.515,27.254c0.093,16.769,4.301,33.735,13.033,49.365  l0.729,1.27C252.524,346.109,271.037,361.237,292.087,369.399L292.087,369.399z M139.529,114.532h197c2.209,0,4,1.791,4,4v26  c0,2.209-1.791,4-4,4h-197c-2.209,0-4-1.791-4-4v-26C135.529,116.323,137.32,114.532,139.529,114.532L139.529,114.532z   M332.529,122.532h-189v18h189V122.532L332.529,122.532z M218.698,278.209c0.594,14.84,4.192,29.748,11.04,43.816H67.19V93.12  h341.677v103.749c-45.7-47.434-123.155-44.587-165.194,6.704H105.396c-5.266,0-5.266,8,0,8h132.306  c-3.083,4.546-5.809,9.299-8.166,14.212h-124.14c-5.266,0-5.266,8,0,8h120.681c-1.799,4.653-3.264,9.368-4.423,14.212H105.396  c-5.266,0-5.266,8,0,8h114.653c-0.764,4.693-1.227,9.44-1.381,14.212H105.396c-5.266,0-5.266,8,0,8H218.698L218.698,278.209z   M389.309,213.664c33.166,33.166,33.166,86.937,0,120.102c-33.166,33.166-86.937,33.166-120.103,0  c-33.165-33.166-33.165-86.937,0-120.102C302.372,180.499,356.143,180.498,389.309,213.664L389.309,213.664z M406.184,273.715  c0,42.485-34.44,76.926-76.926,76.926c-42.485,0-76.925-34.44-76.925-76.926c0-42.486,34.44-76.926,76.925-76.926  C371.744,196.79,406.184,231.23,406.184,273.715L406.184,273.715z M397.212,393.53l7.095-5.315l-8.249-11.01h-27.672  c-22.164,8.415-45.861,9.246-67.76,3.378c-3.549-0.951-7.05-2.079-10.491-3.378h-3.58l5.738,34.461h71.178  c17.167,0,31.197,14.03,31.197,31.197v27.198c0,2.209-1.791,4-4,4H85.391c-2.209,0-4-1.791-4-4v-27.198  c0-17.165,14.03-31.197,31.197-31.197h71.178l5.738-34.461H45.984c-18.693,0-33.972-15.279-33.972-33.972V71.914  c0-18.693,15.279-33.973,33.972-33.973h384.091c18.693,0,33.972,15.279,33.972,33.973v271.318c0,6.983-2.186,13.747-6.115,19.38  c5.678,5.575,9.469,15.744,1.754,21.517l36.756,49.061c5.901,7.196,4.231,18.809-3.455,24.054l-17.955,13.452  c-7.542,5.596-18.113,3.99-23.569-3.382l-36.978-49.357C402.335,425.754,385.215,402.516,397.212,393.53L397.212,393.53z   M410.685,383.436l-15.592-20.812c6.11-4.512,11.643-9.565,16.567-15.054l16.86,22.504L410.685,383.436L410.685,383.436z   M434.897,365.296l-17.999-24.025c8.989-11.665,15.476-24.929,19.226-38.924c7.294-27.22,4.241-57.217-10.865-83.595  c-0.108-0.24-0.241-0.472-0.399-0.692c-2.44-4.191-5.113-8.16-7.992-11.905V89.12c0-2.209-1.791-4-4-4H63.19c-2.209,0-4,1.791-4,4  v236.905c0,2.209,1.791,4,4,4h170.84c9.913,16.773,23.583,29.985,39.319,39.179H45.984c-14.277,0-25.973-11.696-25.973-25.973  V71.914c0-14.277,11.696-25.973,25.973-25.973h384.091c14.277,0,25.972,11.695,25.972,25.973v271.318  c0,5.559-1.728,10.771-4.919,15.169c-3.051-0.909-6.242-0.586-9.139,1.584L434.897,365.296L434.897,365.296z M453.307,388.906  l-32.428,24.295l36.962,49.337c1.106,1.79,3.772,3.141,5.836,3.436c2.711,0.388,4.36-0.289,6.571-1.655l18.242-13.666  c3.88-2.909,4.689-8.528,1.782-12.407L453.307,388.906L453.307,388.906z M446.77,366.359c3.677-2.754,12.033,8.473,8.388,11.204  l-44.776,33.546c-3.661,2.742-12.043-8.466-8.388-11.204L446.77,366.359L446.77,366.359z M320.449,270.576c-5.266,0-5.266-8,0-8  h17.619c5.266,0,5.266,8,0,8H320.449L320.449,270.576z M325.206,279.085c-2.022,0-3.857,0.824-5.185,2.152l0.008,0.008  c-1.323,1.326-2.144,3.159-2.145,5.177h-0.016v2.688c-6.423-1.383-12.43-3.915-17.794-7.372c-5.297-3.414-9.955-7.725-13.757-12.715  l-2.343-3.327v-7.16c0-3.127,2.573-5.7,5.699-5.7c26.389,0,52.779,0,79.168,0c3.126,0,5.7,2.574,5.7,5.7h0.016l0,7.136l-2.357,3.348  c-3.803,4.991-8.462,9.304-13.76,12.719c-5.364,3.457-11.371,5.99-17.794,7.372v-2.688h-0.016c-0.001-4.037-3.267-7.336-7.32-7.336  C330.609,279.085,327.908,279.085,325.206,279.085L325.206,279.085z M340.646,297.237c11.715-2.177,22.392-7.664,30.938-15.678  v27.894c0,2.816-2.341,5.133-5.117,5.133v-0.016H292.05c-2.816,0-5.133-2.341-5.133-5.118h0.016v-27.894  c8.546,8.015,19.222,13.501,30.937,15.678c0,4.056-0.584,7.371,2.152,10.107l0,0c1.272,1.319,3.193,2.152,5.185,2.152l8.104,0v0.016  c2.021,0,3.857-0.824,5.185-2.152C341.229,304.625,340.646,301.29,340.646,297.237L340.646,297.237z M332.646,287.085v14.442  l-6.777,0v-14.443H332.646L332.646,287.085z M278.932,272.438c-1.159-1.614-2.944-3.831-2.942-5.61h-0.015v-8.293  c0-7.542,6.156-13.699,13.699-13.699h8.125l0-11.602h-0.016c0-2.252,0.955-4.453,2.465-5.909l-0.008-0.008  c1.506-1.506,3.601-2.441,5.917-2.441v-0.016h45.218c4.605,0,8.358,3.732,8.358,8.373h0.016v11.603h9.093  c7.542,0,13.699,6.157,13.699,13.7h-0.016l0,8.293c0,0.768-0.218,1.485-0.594,2.093l0,0c-0.744,1.2-1.527,2.373-2.348,3.517v37.015  c0,7.214-5.867,13.101-13.117,13.102v0.016H292.05c-7.214,0-13.101-5.866-13.102-13.118h-0.016V272.438L278.932,272.438z   M305.768,244.835l0-11.602h0.016c0-0.105,0.04-0.2,0.105-0.268l0.008,0.008c0.079-0.079,0.173-0.129,0.261-0.129v0.016h45.217  l0.389,0.373h-0.016v11.603H305.768L305.768,244.835z M388.512,367.131l1.553,2.073h-4.96  C386.257,368.53,387.393,367.839,388.512,367.131L388.512,367.131z M284.198,411.665h-92.339l5.738-34.461h80.864L284.198,411.665  L284.198,411.665z M363.47,419.664H112.587c-12.75,0-23.197,10.447-23.197,23.197v23.198h297.276v-23.198  C386.667,430.111,376.22,419.664,363.47,419.664z"/><text x="0.0" y="601.6" font-size="25.6" font-weight="bold" font-family="Arbeit Regular, Helvetica, Arial-Unicode, Arial, Sans-serif" fill="#000000">Created by captain_kid</text><text x="0.0" y="627.2" font-size="25.6" font-weight="bold" font-family="Arbeit Regular, Helvetica, Arial-Unicode, Arial, Sans-serif" fill="#000000">from Noun Project</text></svg>